<?xml version="1.0" encoding="UTF-8"?>
<svg width="175px" height="86px" viewBox="0 0 175 86" version="1.1" xmlns="http://www.w3.org/2000/svg" xmlns:xlink="http://www.w3.org/1999/xlink">
    <!-- Generator: Sketch 50.2 (55047) - http://www.bohemiancoding.com/sketch -->
    <title>Artboard</title>
    <desc>Created with Sketch.</desc>
    <defs></defs>
    <g id="Artboard" stroke="none" stroke-width="1" fill="none" fill-rule="evenodd">
        <g id="icon--social" fill-rule="nonzero">
            <g id="Group" fill="#000000">
                <path d="M170.647059,18.7058824 C170.647059,18.387451 170.524706,18.0933333 170.303529,17.8729412 L167.75451,15.3239216 C167.534118,15.1035294 167.227451,14.9803922 166.921569,14.9803922 C166.566275,14.9803922 166.284706,15.1152941 166.039216,15.372549 C166.443922,15.7772549 166.921569,16.12 166.921569,16.745098 C166.921569,17.3945098 166.39451,17.9215686 165.745098,17.9215686 C165.12,17.9215686 164.777255,17.4439216 164.372549,17.0392157 C164.115294,17.2847059 163.967843,17.5662745 163.967843,17.9341176 C163.967843,18.2407843 164.090196,18.5466667 164.311373,18.7670588 L166.836078,21.3035294 C167.056471,21.5239216 167.363137,21.6345098 167.66902,21.6345098 C167.974902,21.6345098 168.281569,21.5239216 168.501961,21.3160784 L170.303529,19.5270588 C170.523922,19.3066667 170.647059,19.012549 170.647059,18.7058824 Z M162.032157,10.0658824 C162.032157,9.75921569 161.909804,9.45333333 161.688627,9.23294118 L159.163922,6.69647059 C158.943529,6.47607843 158.636863,6.35294118 158.33098,6.35294118 C158.025098,6.35294118 157.718431,6.47529412 157.498039,6.68392157 L155.696471,8.47294118 C155.476078,8.69333333 155.352941,8.98745098 155.352941,9.29411765 C155.352941,9.61254902 155.475294,9.90666667 155.696471,10.1270588 L158.24549,12.6760784 C158.465882,12.8964706 158.772549,13.0070588 159.078431,13.0070588 C159.433725,13.0070588 159.715294,12.8847059 159.960784,12.627451 C159.556078,12.2227451 159.078431,11.88 159.078431,11.254902 C159.078431,10.6054902 159.60549,10.0784314 160.254902,10.0784314 C160.88,10.0784314 161.222745,10.5560784 161.627451,10.9607843 C161.884706,10.7152941 162.032157,10.4337255 162.032157,10.0658824 Z M173,18.7058824 C173,19.6376471 172.620392,20.5443137 171.958431,21.1937255 L170.156863,22.9827451 C169.494902,23.6447059 168.600784,24 167.66902,24 C166.72549,24 165.830588,23.6321569 165.169412,22.9584314 L162.644706,20.4219608 C161.982745,19.76 161.627451,18.8658824 161.627451,17.9341176 C161.627451,16.9662745 162.019608,16.0470588 162.705882,15.372549 L161.627451,14.2941176 C160.953725,14.9803922 160.046275,15.372549 159.078431,15.372549 C158.146667,15.372549 157.24,15.0047059 156.578824,14.3427451 L154.029804,11.7937255 C153.356078,11.12 153,10.2376471 153,9.29411765 C153,8.36235294 153.379608,7.45568627 154.041569,6.80627451 L155.843137,5.0172549 C156.505098,4.35529412 157.399216,4 158.33098,4 C159.27451,4 160.169412,4.36784314 160.830588,5.04156863 L163.355294,7.57803922 C164.017255,8.24 164.372549,9.13411765 164.372549,10.0658824 C164.372549,11.0337255 163.980392,11.9529412 163.294118,12.627451 L164.372549,13.7058824 C165.046275,13.0196078 165.953725,12.627451 166.921569,12.627451 C167.853333,12.627451 168.76,12.9952941 169.421176,13.6572549 L171.970196,16.2062745 C172.643922,16.88 173,17.7623529 173,18.7058824 Z" id="Shape"></path>
                <path d="M86.4097738,10.2811416 L86.4097738,21.4412407 C86.4097738,22.6781532 85.3852567,23.6901725 84.1330692,23.6901725 L63.1873865,23.6901725 C61.9351989,23.6901725 60.9106819,22.6781532 60.9106819,21.4412407 L60.9106819,10.2811416 C61.3377916,10.7453211 61.8213637,11.1528275 62.3477378,11.5036609 C64.7100466,13.0923063 67.1005864,14.6800522 69.4200931,16.3532574 C70.6158184,17.2249434 72.0956764,18.2927362 73.6465676,18.2927362 L73.6747987,18.2927362 C75.2256899,18.2927362 76.705548,17.2240438 77.9012732,16.3532574 C80.2207799,14.6944453 82.6113198,13.0923063 84.9872888,11.5036609 C85.499092,11.151928 85.9835747,10.7444215 86.4106845,10.2811416 L86.4097738,10.2811416 Z M86.4097738,6.14850451 C86.4097738,7.72275676 85.2286195,9.14228251 83.9764319,9.99957531 C81.7561895,11.5171545 79.5222869,13.0356332 77.3166155,14.5676056 C76.3913627,15.2000052 74.8268113,16.4935908 73.6738881,16.4935908 L73.6456569,16.4935908 C72.4927337,16.4935908 70.9281823,15.2009048 70.0029295,14.5676056 C67.797258,13.0356332 65.5633555,11.5171545 63.357684,9.99957531 C62.3477378,9.32489577 60.9097712,7.73625036 60.9097712,6.45705795 C60.9097712,5.07981212 61.6638157,3.89867314 63.1864758,3.89867314 L84.1321585,3.89867314 C85.3697751,3.89867314 86.4088631,4.91069245 86.4088631,6.14760494 L86.4097738,6.14850451 Z" id="Shape"></path>
                <path d="M49.1566933,0.187 L49.1566933,4.312 L46.6734004,4.312 C44.7276649,4.312 44.3642315,5.234 44.3642315,6.562 L44.3642315,9.515 L48.9987668,9.515 L48.3822461,14.14 L44.3642315,14.14 L44.3642315,25.999 L39.5241892,25.999 L39.5241892,14.14 L35.4909894,14.14 L35.4909894,9.515 L39.5241892,9.515 L39.5241892,6.109 C39.5241892,2.156 41.9760994,1.77635684e-15 45.5507049,1.77635684e-15 C47.2585383,1.77635684e-15 48.7304942,0.125 49.1577057,0.187 L49.1566933,0.187 Z" id="Shape"></path>
                <path d="M97.453,9.67126486 L97.453,24.9663801 L92.297,24.9663801 L92.297,9.67126486 L97.453,9.67126486 Z M97.781,4.94759907 C97.797,6.41349619 96.672,7.58700413 94.875,7.58700413 L94.844,7.58700413 C93.11,7.58700413 92,6.41349619 92,4.94759907 C92,3.4500923 93.156,2.308194 94.906,2.308194 C96.672,2.308194 97.765,3.4500923 97.781,4.94759907 Z M116,16.1996436 L116,24.9663801 L110.859,24.9663801 L110.859,16.7863976 C110.859,14.7337465 110.109,13.3290931 108.25,13.3290931 C106.828,13.3290931 105.984,14.2704677 105.609,15.1812205 C105.484,15.5210241 105.437,15.9684981 105.437,16.4317769 L105.437,24.9673679 L100.296,24.9673679 C100.359,11.1075279 100.296,9.67225266 100.296,9.67225266 L105.437,9.67225266 L105.437,11.8948056 L105.406,11.8948056 C106.078,10.8457606 107.297,9.317632 110.078,9.317632 C113.469,9.317632 116,11.5095631 116,16.2016192 L116,16.1996436 Z" id="Shape"></path>
                <path d="M27.2590769,5.59027779 C26.5181538,6.6540638 25.5930769,7.60189713 24.5333846,8.36569549 C24.5506154,8.59866462 24.5506154,8.83163376 24.5506154,9.06353911 C24.5506154,16.1611194 19.082,24.3384424 9.08707692,24.3384424 C6.00815385,24.3384424 3.14676923,23.4576276 0.74092308,21.9279033 C1.17815385,21.9779013 1.59923077,21.9949219 2.05369231,21.9949219 C4.59415385,21.9949219 6.93323077,21.1470844 8.80169231,19.7013992 C6.412,19.6514013 4.41,18.1057202 3.71969231,15.9781482 C4.05676923,16.0281461 4.39276923,16.0611235 4.746,16.0611235 C5.23384615,16.0611235 5.72169231,15.994105 6.17615385,15.8781523 C3.68630769,15.3792367 1.81784615,13.2186873 1.81784615,10.6092202 L1.81784615,10.5422017 C2.54153846,10.9411214 3.38261538,11.1900473 4.27430769,11.2240885 C2.81076923,10.2602984 1.85123077,8.61462141 1.85123077,6.7529959 C1.85123077,5.75516462 2.12046154,4.84137243 2.59215385,4.04353293 C5.26723077,7.30084569 9.28953846,9.4294815 13.7986154,9.66138685 C13.7146154,9.26246709 13.664,8.84652676 13.664,8.43165022 C13.664,5.47326132 16.0870769,3.06272222 19.0992308,3.06272222 C20.664,3.06272222 22.078,3.71056791 23.0698462,4.75839713 C24.2986154,4.52542799 25.4756923,4.07651029 26.5192308,3.46164198 C26.1153846,4.70839918 25.2570769,5.75516462 24.1295385,6.42003087 C25.2236923,6.3040782 26.2833846,6.00409054 27.2590769,5.589214 L27.2590769,5.59027779 Z" id="Shape"></path>
                <path d="M131.109,16.4587927 L138.671,12.6004408 L131.109,8.69566227 L131.109,16.4587927 Z M134,3.154097 C139.891,3.154097 143.797,3.43166917 143.797,3.43166917 C144.344,3.49390065 145.547,3.49390065 146.609,4.60517711 C146.609,4.60517711 147.468,5.4388814 147.718,7.35225251 C148.015,9.59061024 147.999,11.8279802 147.999,11.8279802 L147.999,13.9270579 C147.999,13.9270579 148.015,16.1654157 147.718,18.4027856 C147.468,20.3013397 146.609,21.149861 146.609,21.149861 C145.547,22.2453326 144.343,22.2453326 143.797,22.3075641 C143.797,22.3075641 139.891,22.6009411 134,22.6009411 C126.719,22.5387096 124.484,22.3233689 124.484,22.3233689 C123.859,22.2156986 122.453,22.2463204 121.39,21.149861 C121.39,21.149861 120.531,20.3013397 120.281,18.4027856 C119.984,16.1644279 120,13.9270579 120,13.9270579 L120,11.8279802 C120,11.8279802 119.984,9.58962244 120.281,7.35225251 C120.531,5.4388814 121.39,4.60517711 121.39,4.60517711 C122.452,3.49390065 123.656,3.49390065 124.202,3.43166917 C124.202,3.43166917 128.108,3.154097 133.999,3.154097 L134,3.154097 Z" id="Shape"></path>
            </g>
            <g id="Group" transform="translate(0.000000, 30.000000)" fill="#1DABDF">
                <path d="M86.4097738,10.2811416 L86.4097738,21.4412407 C86.4097738,22.6781532 85.3852567,23.6901725 84.1330692,23.6901725 L63.1873865,23.6901725 C61.9351989,23.6901725 60.9106819,22.6781532 60.9106819,21.4412407 L60.9106819,10.2811416 C61.3377916,10.7453211 61.8213637,11.1528275 62.3477378,11.5036609 C64.7100466,13.0923063 67.1005864,14.6800522 69.4200931,16.3532574 C70.6158184,17.2249434 72.0956764,18.2927362 73.6465676,18.2927362 L73.6747987,18.2927362 C75.2256899,18.2927362 76.705548,17.2240438 77.9012732,16.3532574 C80.2207799,14.6944453 82.6113198,13.0923063 84.9872888,11.5036609 C85.499092,11.151928 85.9835747,10.7444215 86.4106845,10.2811416 L86.4097738,10.2811416 Z M86.4097738,6.14850451 C86.4097738,7.72275676 85.2286195,9.14228251 83.9764319,9.99957531 C81.7561895,11.5171545 79.5222869,13.0356332 77.3166155,14.5676056 C76.3913627,15.2000052 74.8268113,16.4935908 73.6738881,16.4935908 L73.6456569,16.4935908 C72.4927337,16.4935908 70.9281823,15.2009048 70.0029295,14.5676056 C67.797258,13.0356332 65.5633555,11.5171545 63.357684,9.99957531 C62.3477378,9.32489577 60.9097712,7.73625036 60.9097712,6.45705795 C60.9097712,5.07981212 61.6638157,3.89867314 63.1864758,3.89867314 L84.1321585,3.89867314 C85.3697751,3.89867314 86.4088631,4.91069245 86.4088631,6.14760494 L86.4097738,6.14850451 Z" id="Shape"></path>
                <path d="M49.1566933,0.187 L49.1566933,4.312 L46.6734004,4.312 C44.7276649,4.312 44.3642315,5.234 44.3642315,6.562 L44.3642315,9.515 L48.9987668,9.515 L48.3822461,14.14 L44.3642315,14.14 L44.3642315,25.999 L39.5241892,25.999 L39.5241892,14.14 L35.4909894,14.14 L35.4909894,9.515 L39.5241892,9.515 L39.5241892,6.109 C39.5241892,2.156 41.9760994,0 45.5507049,0 C47.2585383,0 48.7304942,0.125 49.1577057,0.187 L49.1566933,0.187 Z" id="Shape"></path>
                <path d="M97.453,9.67126486 L97.453,24.9663801 L92.297,24.9663801 L92.297,9.67126486 L97.453,9.67126486 Z M97.781,4.94759907 C97.797,6.41349619 96.672,7.58700413 94.875,7.58700413 L94.844,7.58700413 C93.11,7.58700413 92,6.41349619 92,4.94759907 C92,3.4500923 93.156,2.308194 94.906,2.308194 C96.672,2.308194 97.765,3.4500923 97.781,4.94759907 Z M116,16.1996436 L116,24.9663801 L110.859,24.9663801 L110.859,16.7863976 C110.859,14.7337465 110.109,13.3290931 108.25,13.3290931 C106.828,13.3290931 105.984,14.2704677 105.609,15.1812205 C105.484,15.5210241 105.437,15.9684981 105.437,16.4317769 L105.437,24.9673679 L100.296,24.9673679 C100.359,11.1075279 100.296,9.67225266 100.296,9.67225266 L105.437,9.67225266 L105.437,11.8948056 L105.406,11.8948056 C106.078,10.8457606 107.297,9.317632 110.078,9.317632 C113.469,9.317632 116,11.5095631 116,16.2016192 L116,16.1996436 Z" id="Shape"></path>
                <path d="M27.2590769,5.59027779 C26.5181538,6.6540638 25.5930769,7.60189713 24.5333846,8.36569549 C24.5506154,8.59866462 24.5506154,8.83163376 24.5506154,9.06353911 C24.5506154,16.1611194 19.082,24.3384424 9.08707692,24.3384424 C6.00815385,24.3384424 3.14676923,23.4576276 0.74092308,21.9279033 C1.17815385,21.9779013 1.59923077,21.9949219 2.05369231,21.9949219 C4.59415385,21.9949219 6.93323077,21.1470844 8.80169231,19.7013992 C6.412,19.6514013 4.41,18.1057202 3.71969231,15.9781482 C4.05676923,16.0281461 4.39276923,16.0611235 4.746,16.0611235 C5.23384615,16.0611235 5.72169231,15.994105 6.17615385,15.8781523 C3.68630769,15.3792367 1.81784615,13.2186873 1.81784615,10.6092202 L1.81784615,10.5422017 C2.54153846,10.9411214 3.38261538,11.1900473 4.27430769,11.2240885 C2.81076923,10.2602984 1.85123077,8.61462141 1.85123077,6.7529959 C1.85123077,5.75516462 2.12046154,4.84137243 2.59215385,4.04353293 C5.26723077,7.30084569 9.28953846,9.4294815 13.7986154,9.66138685 C13.7146154,9.26246709 13.664,8.84652676 13.664,8.43165022 C13.664,5.47326132 16.0870769,3.06272222 19.0992308,3.06272222 C20.664,3.06272222 22.078,3.71056791 23.0698462,4.75839713 C24.2986154,4.52542799 25.4756923,4.07651029 26.5192308,3.46164198 C26.1153846,4.70839918 25.2570769,5.75516462 24.1295385,6.42003087 C25.2236923,6.3040782 26.2833846,6.00409054 27.2590769,5.589214 L27.2590769,5.59027779 Z" id="Shape"></path>
                <path d="M131.109,16.4587927 L138.671,12.6004408 L131.109,8.69566227 L131.109,16.4587927 Z M134,3.154097 C139.891,3.154097 143.797,3.43166917 143.797,3.43166917 C144.344,3.49390065 145.547,3.49390065 146.609,4.60517711 C146.609,4.60517711 147.468,5.4388814 147.718,7.35225251 C148.015,9.59061024 147.999,11.8279802 147.999,11.8279802 L147.999,13.9270579 C147.999,13.9270579 148.015,16.1654157 147.718,18.4027856 C147.468,20.3013397 146.609,21.149861 146.609,21.149861 C145.547,22.2453326 144.343,22.2453326 143.797,22.3075641 C143.797,22.3075641 139.891,22.6009411 134,22.6009411 C126.719,22.5387096 124.484,22.3233689 124.484,22.3233689 C123.859,22.2156986 122.453,22.2463204 121.39,21.149861 C121.39,21.149861 120.531,20.3013397 120.281,18.4027856 C119.984,16.1644279 120,13.9270579 120,13.9270579 L120,11.8279802 C120,11.8279802 119.984,9.58962244 120.281,7.35225251 C120.531,5.4388814 121.39,4.60517711 121.39,4.60517711 C122.452,3.49390065 123.656,3.49390065 124.202,3.43166917 C124.202,3.43166917 128.108,3.154097 133.999,3.154097 L134,3.154097 Z" id="Shape"></path>
                <path d="M170.647059,18.7058824 C170.647059,18.387451 170.524706,18.0933333 170.303529,17.8729412 L167.75451,15.3239216 C167.534118,15.1035294 167.227451,14.9803922 166.921569,14.9803922 C166.566275,14.9803922 166.284706,15.1152941 166.039216,15.372549 C166.443922,15.7772549 166.921569,16.12 166.921569,16.745098 C166.921569,17.3945098 166.39451,17.9215686 165.745098,17.9215686 C165.12,17.9215686 164.777255,17.4439216 164.372549,17.0392157 C164.115294,17.2847059 163.967843,17.5662745 163.967843,17.9341176 C163.967843,18.2407843 164.090196,18.5466667 164.311373,18.7670588 L166.836078,21.3035294 C167.056471,21.5239216 167.363137,21.6345098 167.66902,21.6345098 C167.974902,21.6345098 168.281569,21.5239216 168.501961,21.3160784 L170.303529,19.5270588 C170.523922,19.3066667 170.647059,19.012549 170.647059,18.7058824 Z M162.032157,10.0658824 C162.032157,9.75921569 161.909804,9.45333333 161.688627,9.23294118 L159.163922,6.69647059 C158.943529,6.47607843 158.636863,6.35294118 158.33098,6.35294118 C158.025098,6.35294118 157.718431,6.47529412 157.498039,6.68392157 L155.696471,8.47294118 C155.476078,8.69333333 155.352941,8.98745098 155.352941,9.29411765 C155.352941,9.61254902 155.475294,9.90666667 155.696471,10.1270588 L158.24549,12.6760784 C158.465882,12.8964706 158.772549,13.0070588 159.078431,13.0070588 C159.433725,13.0070588 159.715294,12.8847059 159.960784,12.627451 C159.556078,12.2227451 159.078431,11.88 159.078431,11.254902 C159.078431,10.6054902 159.60549,10.0784314 160.254902,10.0784314 C160.88,10.0784314 161.222745,10.5560784 161.627451,10.9607843 C161.884706,10.7152941 162.032157,10.4337255 162.032157,10.0658824 Z M173,18.7058824 C173,19.6376471 172.620392,20.5443137 171.958431,21.1937255 L170.156863,22.9827451 C169.494902,23.6447059 168.600784,24 167.66902,24 C166.72549,24 165.830588,23.6321569 165.169412,22.9584314 L162.644706,20.4219608 C161.982745,19.76 161.627451,18.8658824 161.627451,17.9341176 C161.627451,16.9662745 162.019608,16.0470588 162.705882,15.372549 L161.627451,14.2941176 C160.953725,14.9803922 160.046275,15.372549 159.078431,15.372549 C158.146667,15.372549 157.24,15.0047059 156.578824,14.3427451 L154.029804,11.7937255 C153.356078,11.12 153,10.2376471 153,9.29411765 C153,8.36235294 153.379608,7.45568627 154.041569,6.80627451 L155.843137,5.0172549 C156.505098,4.35529412 157.399216,4 158.33098,4 C159.27451,4 160.169412,4.36784314 160.830588,5.04156863 L163.355294,7.57803922 C164.017255,8.24 164.372549,9.13411765 164.372549,10.0658824 C164.372549,11.0337255 163.980392,11.9529412 163.294118,12.627451 L164.372549,13.7058824 C165.046275,13.0196078 165.953725,12.627451 166.921569,12.627451 C167.853333,12.627451 168.76,12.9952941 169.421176,13.6572549 L171.970196,16.2062745 C172.643922,16.88 173,17.7623529 173,18.7058824 Z" id="Shape"></path>
            </g>
            <g id="Group" transform="translate(0.000000, 60.000000)" fill="#FFFFFF">
                <path d="M170.647059,17.7058824 C170.647059,17.387451 170.524706,17.0933333 170.303529,16.8729412 L167.75451,14.3239216 C167.534118,14.1035294 167.227451,13.9803922 166.921569,13.9803922 C166.566275,13.9803922 166.284706,14.1152941 166.039216,14.372549 C166.443922,14.7772549 166.921569,15.12 166.921569,15.745098 C166.921569,16.3945098 166.39451,16.9215686 165.745098,16.9215686 C165.12,16.9215686 164.777255,16.4439216 164.372549,16.0392157 C164.115294,16.2847059 163.967843,16.5662745 163.967843,16.9341176 C163.967843,17.2407843 164.090196,17.5466667 164.311373,17.7670588 L166.836078,20.3035294 C167.056471,20.5239216 167.363137,20.6345098 167.66902,20.6345098 C167.974902,20.6345098 168.281569,20.5239216 168.501961,20.3160784 L170.303529,18.5270588 C170.523922,18.3066667 170.647059,18.012549 170.647059,17.7058824 Z M162.032157,9.06588235 C162.032157,8.75921569 161.909804,8.45333333 161.688627,8.23294118 L159.163922,5.69647059 C158.943529,5.47607843 158.636863,5.35294118 158.33098,5.35294118 C158.025098,5.35294118 157.718431,5.47529412 157.498039,5.68392157 L155.696471,7.47294118 C155.476078,7.69333333 155.352941,7.98745098 155.352941,8.29411765 C155.352941,8.61254902 155.475294,8.90666667 155.696471,9.12705882 L158.24549,11.6760784 C158.465882,11.8964706 158.772549,12.0070588 159.078431,12.0070588 C159.433725,12.0070588 159.715294,11.8847059 159.960784,11.627451 C159.556078,11.2227451 159.078431,10.88 159.078431,10.254902 C159.078431,9.6054902 159.60549,9.07843137 160.254902,9.07843137 C160.88,9.07843137 161.222745,9.55607843 161.627451,9.96078431 C161.884706,9.71529412 162.032157,9.43372549 162.032157,9.06588235 Z M173,17.7058824 C173,18.6376471 172.620392,19.5443137 171.958431,20.1937255 L170.156863,21.9827451 C169.494902,22.6447059 168.600784,23 167.66902,23 C166.72549,23 165.830588,22.6321569 165.169412,21.9584314 L162.644706,19.4219608 C161.982745,18.76 161.627451,17.8658824 161.627451,16.9341176 C161.627451,15.9662745 162.019608,15.0470588 162.705882,14.372549 L161.627451,13.2941176 C160.953725,13.9803922 160.046275,14.372549 159.078431,14.372549 C158.146667,14.372549 157.24,14.0047059 156.578824,13.3427451 L154.029804,10.7937255 C153.356078,10.12 153,9.23764706 153,8.29411765 C153,7.36235294 153.379608,6.45568627 154.041569,5.80627451 L155.843137,4.0172549 C156.505098,3.35529412 157.399216,3 158.33098,3 C159.27451,3 160.169412,3.36784314 160.830588,4.04156863 L163.355294,6.57803922 C164.017255,7.24 164.372549,8.13411765 164.372549,9.06588235 C164.372549,10.0337255 163.980392,10.9529412 163.294118,11.627451 L164.372549,12.7058824 C165.046275,12.0196078 165.953725,11.627451 166.921569,11.627451 C167.853333,11.627451 168.76,11.9952941 169.421176,12.6572549 L171.970196,15.2062745 C172.643922,15.88 173,16.7623529 173,17.7058824 Z" id="Shape"></path>
                <path d="M86.4097738,10.2811416 L86.4097738,21.4412407 C86.4097738,22.6781532 85.3852567,23.6901725 84.1330692,23.6901725 L63.1873865,23.6901725 C61.9351989,23.6901725 60.9106819,22.6781532 60.9106819,21.4412407 L60.9106819,10.2811416 C61.3377916,10.7453211 61.8213637,11.1528275 62.3477378,11.5036609 C64.7100466,13.0923063 67.1005864,14.6800522 69.4200931,16.3532574 C70.6158184,17.2249434 72.0956764,18.2927362 73.6465676,18.2927362 L73.6747987,18.2927362 C75.2256899,18.2927362 76.705548,17.2240438 77.9012732,16.3532574 C80.2207799,14.6944453 82.6113198,13.0923063 84.9872888,11.5036609 C85.499092,11.151928 85.9835747,10.7444215 86.4106845,10.2811416 L86.4097738,10.2811416 Z M86.4097738,6.14850451 C86.4097738,7.72275676 85.2286195,9.14228251 83.9764319,9.99957531 C81.7561895,11.5171545 79.5222869,13.0356332 77.3166155,14.5676056 C76.3913627,15.2000052 74.8268113,16.4935908 73.6738881,16.4935908 L73.6456569,16.4935908 C72.4927337,16.4935908 70.9281823,15.2009048 70.0029295,14.5676056 C67.797258,13.0356332 65.5633555,11.5171545 63.357684,9.99957531 C62.3477378,9.32489577 60.9097712,7.73625036 60.9097712,6.45705795 C60.9097712,5.07981212 61.6638157,3.89867314 63.1864758,3.89867314 L84.1321585,3.89867314 C85.3697751,3.89867314 86.4088631,4.91069245 86.4088631,6.14760494 L86.4097738,6.14850451 Z" id="Shape"></path>
                <path d="M49.1566933,0.187 L49.1566933,4.312 L46.6734004,4.312 C44.7276649,4.312 44.3642315,5.234 44.3642315,6.562 L44.3642315,9.515 L48.9987668,9.515 L48.3822461,14.14 L44.3642315,14.14 L44.3642315,25.999 L39.5241892,25.999 L39.5241892,14.14 L35.4909894,14.14 L35.4909894,9.515 L39.5241892,9.515 L39.5241892,6.109 C39.5241892,2.156 41.9760994,0 45.5507049,0 C47.2585383,0 48.7304942,0.125 49.1577057,0.187 L49.1566933,0.187 Z" id="Shape"></path>
                <path d="M97.453,9.67126486 L97.453,24.9663801 L92.297,24.9663801 L92.297,9.67126486 L97.453,9.67126486 Z M97.781,4.94759907 C97.797,6.41349619 96.672,7.58700413 94.875,7.58700413 L94.844,7.58700413 C93.11,7.58700413 92,6.41349619 92,4.94759907 C92,3.4500923 93.156,2.308194 94.906,2.308194 C96.672,2.308194 97.765,3.4500923 97.781,4.94759907 Z M116,16.1996436 L116,24.9663801 L110.859,24.9663801 L110.859,16.7863976 C110.859,14.7337465 110.109,13.3290931 108.25,13.3290931 C106.828,13.3290931 105.984,14.2704677 105.609,15.1812205 C105.484,15.5210241 105.437,15.9684981 105.437,16.4317769 L105.437,24.9673679 L100.296,24.9673679 C100.359,11.1075279 100.296,9.67225266 100.296,9.67225266 L105.437,9.67225266 L105.437,11.8948056 L105.406,11.8948056 C106.078,10.8457606 107.297,9.317632 110.078,9.317632 C113.469,9.317632 116,11.5095631 116,16.2016192 L116,16.1996436 Z" id="Shape"></path>
                <path d="M27.2590769,5.59027779 C26.5181538,6.6540638 25.5930769,7.60189713 24.5333846,8.36569549 C24.5506154,8.59866462 24.5506154,8.83163376 24.5506154,9.06353911 C24.5506154,16.1611194 19.082,24.3384424 9.08707692,24.3384424 C6.00815385,24.3384424 3.14676923,23.4576276 0.74092308,21.9279033 C1.17815385,21.9779013 1.59923077,21.9949219 2.05369231,21.9949219 C4.59415385,21.9949219 6.93323077,21.1470844 8.80169231,19.7013992 C6.412,19.6514013 4.41,18.1057202 3.71969231,15.9781482 C4.05676923,16.0281461 4.39276923,16.0611235 4.746,16.0611235 C5.23384615,16.0611235 5.72169231,15.994105 6.17615385,15.8781523 C3.68630769,15.3792367 1.81784615,13.2186873 1.81784615,10.6092202 L1.81784615,10.5422017 C2.54153846,10.9411214 3.38261538,11.1900473 4.27430769,11.2240885 C2.81076923,10.2602984 1.85123077,8.61462141 1.85123077,6.7529959 C1.85123077,5.75516462 2.12046154,4.84137243 2.59215385,4.04353293 C5.26723077,7.30084569 9.28953846,9.4294815 13.7986154,9.66138685 C13.7146154,9.26246709 13.664,8.84652676 13.664,8.43165022 C13.664,5.47326132 16.0870769,3.06272222 19.0992308,3.06272222 C20.664,3.06272222 22.078,3.71056791 23.0698462,4.75839713 C24.2986154,4.52542799 25.4756923,4.07651029 26.5192308,3.46164198 C26.1153846,4.70839918 25.2570769,5.75516462 24.1295385,6.42003087 C25.2236923,6.3040782 26.2833846,6.00409054 27.2590769,5.589214 L27.2590769,5.59027779 Z" id="Shape"></path>
                <path d="M131.109,16.4587927 L138.671,12.6004408 L131.109,8.69566227 L131.109,16.4587927 Z M134,3.154097 C139.891,3.154097 143.797,3.43166917 143.797,3.43166917 C144.344,3.49390065 145.547,3.49390065 146.609,4.60517711 C146.609,4.60517711 147.468,5.4388814 147.718,7.35225251 C148.015,9.59061024 147.999,11.8279802 147.999,11.8279802 L147.999,13.9270579 C147.999,13.9270579 148.015,16.1654157 147.718,18.4027856 C147.468,20.3013397 146.609,21.149861 146.609,21.149861 C145.547,22.2453326 144.343,22.2453326 143.797,22.3075641 C143.797,22.3075641 139.891,22.6009411 134,22.6009411 C126.719,22.5387096 124.484,22.3233689 124.484,22.3233689 C123.859,22.2156986 122.453,22.2463204 121.39,21.149861 C121.39,21.149861 120.531,20.3013397 120.281,18.4027856 C119.984,16.1644279 120,13.9270579 120,13.9270579 L120,11.8279802 C120,11.8279802 119.984,9.58962244 120.281,7.35225251 C120.531,5.4388814 121.39,4.60517711 121.39,4.60517711 C122.452,3.49390065 123.656,3.49390065 124.202,3.43166917 C124.202,3.43166917 128.108,3.154097 133.999,3.154097 L134,3.154097 Z" id="Shape"></path>
            </g>
        </g>
    </g>
</svg>