<svg height="60" viewBox="0 0 150 60" width="150" xmlns="http://www.w3.org/2000/svg"><g fill="none"><g fill="#000"><path d="m26.4097738 7.28114157v11.16009913c0 1.2369125-1.0245171 2.2489318-2.2767046 2.2489318h-20.9456827c-1.25218756 0-2.27670464-1.0120193-2.27670464-2.2489318v-11.16009913c.42710979.46417952.91068185.87168596 1.43705596 1.22251932 2.36230874 1.58864541 4.75284861 3.17639131 7.0723553 4.84959651 1.19572528.871686 2.67558328 1.9394788 4.22647448 1.9394788h.0282311c1.5508912 0 3.0307493-1.0686924 4.2264745-1.9394788 2.3195067-1.6588121 4.7100466-3.2609511 7.0860156-4.84959651.5118032-.35173293.9962859-.75923937 1.4233957-1.22251932zm0-4.13263706c0 1.57425225-1.1811543 2.993778-2.4333419 3.8510708-2.2202424 1.51757918-4.454145 3.03605789-6.6598164 4.56803029-.9252528.6323996-2.4898042 1.9259852-3.6427274 1.9259852h-.0282312c-1.1529232 0-2.7174746-1.292686-3.6427274-1.9259852-2.20567145-1.5319724-4.43957404-3.05045111-6.6452455-4.56803029-1.00994618-.67467954-2.44791283-2.26332495-2.44791283-3.54251736 0-1.37724583.75404458-2.55838481 2.27670464-2.55838481h20.94568269c1.2376166 0 2.2767046 1.01201931 2.2767046 2.2489318z" transform="translate(61 5)"/><path d="m14.1566933.187v4.125h-2.4832929c-1.94573549 0-2.30916891.922-2.30916891 2.25v2.953h4.63453531l-.6165207 4.625h-4.01801461v11.859h-4.84004224v-11.859h-4.03319981v-4.625h4.03319981v-3.406c0-3.953 2.45191012-6.109 6.02651565-6.109 1.7078334 0 3.1797893.125 3.6070008.187z" transform="translate(36 2)"/><path d="m5.453 7.67126486v15.29511524h-5.156v-15.29511524zm.328-4.72366579c.016 1.46589712-1.109 2.63940506-2.906 2.63940506h-.031c-1.734 0-2.844-1.17350794-2.844-2.63940506 0-1.49750677 1.156-2.63940507 2.906-2.63940507 1.766 0 2.859 1.1418983 2.875 2.63940507zm18.219 11.25204453v8.7667365h-5.141v-8.1799825c0-2.0526511-.75-3.4573045-2.609-3.4573045-1.422 0-2.266.9413746-2.641 1.8521274-.125.3398036-.172.7872776-.172 1.2505564v8.535591h-5.141c.063-13.85983995 0-15.29511524 0-15.29511524h5.141v2.22255292h-.031c.672-1.04904498 1.891-2.57717358 4.672-2.57717358 3.391 0 5.922 2.19193107 5.922 6.8839872z" transform="translate(93 4)"/><path d="m27.2590769 3.59027779c-.7409231 1.06378601-1.666 2.01161934-2.7256923 2.7754177.0172308.23296913.0172308.46593827.0172308.69784362 0 7.09758029-5.4686154 15.27490329-15.46353848 15.27490329-3.07892307 0-5.94030769-.8808148-8.34615384-2.4105391.43723077.049998.85830769.0670186 1.31276923.0670186 2.54046154 0 4.87953846-.8478375 6.748-2.2935227-2.38969231-.0499979-4.39169231-1.595679-5.082-3.723251.33707692.0499979.67307692.0829753 1.02630769.0829753.48784615 0 .97569231-.0670185 1.43015385-.1829712-2.48984616-.4989156-4.3583077-2.659465-4.3583077-5.26893212v-.06701851c.72369231.39891975 1.56476923.64784568 2.45646154.68188683-1.46353846-.96379013-2.42307692-2.60946709-2.42307692-4.4710926 0-.99783128.26923077-1.91162347.74092308-2.70946297 2.67507692 3.25731276 6.69738461 5.38594857 11.20646155 5.61785392-.084-.39891976-.1346154-.81486009-.1346154-1.22973663 0-2.9583889 2.4230769-5.368928 5.4352308-5.368928 1.5647692 0 2.9787692.64784569 3.9706154 1.69567491 1.2287692-.23296914 2.4058461-.68188684 3.4493846-1.29675515-.4038462 1.2467572-1.2621539 2.29352264-2.3896923 2.95838889 1.0941538-.11595267 2.1538461-.41594033 3.1295384-.83081687z" transform="translate(1 4)"/><path d="m11.109 13.4587927 7.562-3.85835191-7.562-3.90477852zm2.891-13.3046957c5.891 0 9.797.27757217 9.797.27757217.547.06223148 1.75.06223148 2.812 1.17350794 0 0 .859.83370429 1.109 2.7470754.297 2.23835773.281 4.47572767.281 4.47572767v2.09907772s.016 2.2383578-.281 4.4757277c-.25 1.8985541-1.109 2.7470754-1.109 2.7470754-1.062 1.0954716-2.266 1.0954716-2.812 1.1577031 0 0-3.906.293377-9.797.293377-7.281-.0622315-9.516-.2775722-9.516-.2775722-.625-.1076703-2.031-.0770485-3.094-1.1735079 0 0-.859-.8485213-1.109-2.7470754-.297-2.2383577-.281-4.4757277-.281-4.4757277v-2.09907772s-.016-2.23835774.281-4.47572767c.25-1.91337111 1.109-2.7470754 1.109-2.7470754 1.062-1.11127646 2.266-1.11127646 2.812-1.17350794 0 0 3.906-.27757217 9.797-.27757217z" transform="translate(121 5)"/></g><g fill="#1dabdf"><path d="m26.4097738 7.28114157v11.16009913c0 1.2369125-1.0245171 2.2489318-2.2767046 2.2489318h-20.9456827c-1.25218756 0-2.27670464-1.0120193-2.27670464-2.2489318v-11.16009913c.42710979.46417952.91068185.87168596 1.43705596 1.22251932 2.36230874 1.58864541 4.75284861 3.17639131 7.0723553 4.84959651 1.19572528.871686 2.67558328 1.9394788 4.22647448 1.9394788h.0282311c1.5508912 0 3.0307493-1.0686924 4.2264745-1.9394788 2.3195067-1.6588121 4.7100466-3.2609511 7.0860156-4.84959651.5118032-.35173293.9962859-.75923937 1.4233957-1.22251932zm0-4.13263706c0 1.57425225-1.1811543 2.993778-2.4333419 3.8510708-2.2202424 1.51757918-4.454145 3.03605789-6.6598164 4.56803029-.9252528.6323996-2.4898042 1.9259852-3.6427274 1.9259852h-.0282312c-1.1529232 0-2.7174746-1.292686-3.6427274-1.9259852-2.20567145-1.5319724-4.43957404-3.05045111-6.6452455-4.56803029-1.00994618-.67467954-2.44791283-2.26332495-2.44791283-3.54251736 0-1.37724583.75404458-2.55838481 2.27670464-2.55838481h20.94568269c1.2376166 0 2.2767046 1.01201931 2.2767046 2.2489318z" transform="translate(61 35)"/><path d="m14.1566933.187v4.125h-2.4832929c-1.94573549 0-2.30916891.922-2.30916891 2.25v2.953h4.63453531l-.6165207 4.625h-4.01801461v11.859h-4.84004224v-11.859h-4.03319981v-4.625h4.03319981v-3.406c0-3.953 2.45191012-6.109 6.02651565-6.109 1.7078334 0 3.1797893.125 3.6070008.187z" transform="translate(36 32)"/><path d="m5.453 7.67126486v15.29511524h-5.156v-15.29511524zm.328-4.72366579c.016 1.46589712-1.109 2.63940506-2.906 2.63940506h-.031c-1.734 0-2.844-1.17350794-2.844-2.63940506 0-1.49750677 1.156-2.63940507 2.906-2.63940507 1.766 0 2.859 1.1418983 2.875 2.63940507zm18.219 11.25204453v8.7667365h-5.141v-8.1799825c0-2.0526511-.75-3.4573045-2.609-3.4573045-1.422 0-2.266.9413746-2.641 1.8521274-.125.3398036-.172.7872776-.172 1.2505564v8.535591h-5.141c.063-13.85983995 0-15.29511524 0-15.29511524h5.141v2.22255292h-.031c.672-1.04904498 1.891-2.57717358 4.672-2.57717358 3.391 0 5.922 2.19193107 5.922 6.8839872z" transform="translate(93 34)"/><path d="m27.2590769 2.59027779c-.7409231 1.06378601-1.666 2.01161934-2.7256923 2.7754177.0172308.23296913.0172308.46593827.0172308.69784362 0 7.09758029-5.4686154 15.27490329-15.46353848 15.27490329-3.07892307 0-5.94030769-.8808148-8.34615384-2.4105391.43723077.049998.85830769.0670186 1.31276923.0670186 2.54046154 0 4.87953846-.8478375 6.748-2.2935227-2.38969231-.0499979-4.39169231-1.595679-5.082-3.723251.33707692.0499979.67307692.0829753 1.02630769.0829753.48784615 0 .97569231-.0670185 1.43015385-.1829712-2.48984616-.4989156-4.3583077-2.659465-4.3583077-5.26893212v-.06701851c.72369231.39891975 1.56476923.64784568 2.45646154.68188683-1.46353846-.96379013-2.42307692-2.60946709-2.42307692-4.4710926 0-.99783128.26923077-1.91162347.74092308-2.70946297 2.67507692 3.25731276 6.69738461 5.38594857 11.20646155 5.61785392-.084-.39891976-.1346154-.81486009-.1346154-1.22973663 0-2.9583889 2.4230769-5.368928 5.4352308-5.368928 1.5647692 0 2.9787692.64784569 3.9706154 1.69567491 1.2287692-.23296914 2.4058461-.68188684 3.4493846-1.29675515-.4038462 1.2467572-1.2621539 2.29352264-2.3896923 2.95838889 1.0941538-.11595267 2.1538461-.41594033 3.1295384-.83081687z" transform="translate(1 35)"/><path d="m11.109 13.4587927 7.562-3.85835191-7.562-3.90477852zm2.891-13.3046957c5.891 0 9.797.27757217 9.797.27757217.547.06223148 1.75.06223148 2.812 1.17350794 0 0 .859.83370429 1.109 2.7470754.297 2.23835773.281 4.47572767.281 4.47572767v2.09907772s.016 2.2383578-.281 4.4757277c-.25 1.8985541-1.109 2.7470754-1.109 2.7470754-1.062 1.0954716-2.266 1.0954716-2.812 1.1577031 0 0-3.906.293377-9.797.293377-7.281-.0622315-9.516-.2775722-9.516-.2775722-.625-.1076703-2.031-.0770485-3.094-1.1735079 0 0-.859-.8485213-1.109-2.7470754-.297-2.2383577-.281-4.4757277-.281-4.4757277v-2.09907772s-.016-2.23835774.281-4.47572767c.25-1.91337111 1.109-2.7470754 1.109-2.7470754 1.062-1.11127646 2.266-1.11127646 2.812-1.17350794 0 0 3.906-.27757217 9.797-.27757217z" transform="translate(121 35)"/></g></g></svg>