<svg height="99" viewBox="0 0 521 99" width="521" xmlns="http://www.w3.org/2000/svg"><g fill="#fff"><path d="m.5 97v-95.6h29.9c22.5 0 44.5 14.5 44.5 47.8s-22 47.8-44.5 47.8zm16.1-14.6h7c8.9 0 16.2-1.9 23.1-6.6 7-4.7 11.3-14 11.3-27.1 0-13-4.2-22.4-11.3-27.1-6.9-4.7-14.2-6.6-23.1-6.6h-7z"/><path d="m85 62.6c0-10.2 3.1-18.7 9.4-25.4s14.7-10.1 25.5-10.1 19.3 3.4 25.5 10.1c6.3 6.7 9.4 15.2 9.4 25.4s-3.1 18.8-9.4 25.5-14.7 10-25.5 10-19.3-3.3-25.5-10c-6.3-6.6-9.4-15.2-9.4-25.5m17.7 0c0 5.9 1.5 10.9 4.6 15 3.1 4 7.2 6 12.6 6 5.3 0 9.4-2 12.6-6 3.1-4.1 4.6-9.1 4.6-15s-1.5-10.9-4.6-14.9c-3.1-4.1-7.2-6.1-12.6-6.1-5.3 0-9.4 2-12.6 6.1-3.1 4-4.6 9-4.6 14.9"/><path d="m210.6 95.7c-3.6 1.6-7.2 2.5-11.2 2.5-15.8 0-25.3-8.6-25.3-25.4v-30h-10.7v-14.6h10.7v-17.2l16.9-10.6v27.9h18.2v14.5h-18.2v29.8c0 8.2 3 11.2 9 11.2 2.3 0 4.5-.5 6.6-1.6z"/><path d="m315.7 62.6c0-10.2 3.1-18.7 9.4-25.4s14.7-10.1 25.5-10.1 19.3 3.4 25.5 10.1c6.3 6.7 9.4 15.2 9.4 25.4s-3.1 18.8-9.4 25.5-14.7 10-25.5 10-19.3-3.3-25.5-10c-6.2-6.6-9.4-15.2-9.4-25.5m17.8 0c0 5.9 1.5 10.9 4.6 15 3.1 4 7.2 6 12.6 6 5.3 0 9.4-2 12.6-6 3.1-4.1 4.6-9.1 4.6-15s-1.5-10.9-4.6-14.9c-3.1-4.1-7.2-6.1-12.6-6.1-5.3 0-9.4 2-12.6 6.1-3.1 4-4.6 9-4.6 14.9"/><path d="m417.5 97h-16.9v-68.8h16.9v11.2c4.9-7.8 12.3-12.3 20.3-12.3 2.6 0 5.3.4 8.3 1.4l-3.1 15.7c-2-1.2-4.5-1.9-7.1-1.9-10.8 0-18.4 9.4-18.4 30.3z"/><path d="m458.8.3h17v54.9l22.4-27h20.8l-27.5 31.7 29.3 37.1h-20.7l-24.3-32.5v32.5h-17z"/><path d="m311.9 1.3c-5.7 0-10.3 4.7-10.3 10.5 0 5.7 4.7 10.3 10.3 10.3 5.8 0 10.5-4.7 10.5-10.3 0-5.8-4.7-10.5-10.5-10.5"/><path d="m296.6 57-22.5-43c-1.1-1.9-1.6-3.7-1.6-5.3 0-5 2.2-6.4 5.9-7.2h-39.1c.3 0-1.9.1-1.6.1 1.1 0 10 2.6 14.4 10.7l26.7 48.3v22.4c0 9.9-5.7 12.5-10 13.5h28 9.7c-.9 0-2.1-.6-2.9-.9-1.1-.5-2.1-1-2.9-1.8-2.2-1.8-3.6-4.7-3.8-7.5-.1-1.6 0-3.3 0-5v-5.6-13.1"/></g></svg>