<svg height="277" viewBox="0 0 247 277" width="247" xmlns="http://www.w3.org/2000/svg"><g fill="#fff" transform=""><path d="m216.082993.39251012c-16.410657 0-29.964852 13.62570848-29.964852 30.50364368 0 16.3732794 13.554195 29.9989879 29.964852 29.9989879 16.85873 0 30.412925-13.6257085 30.412925-29.9989879 0-16.9340081-13.554195-30.50364368-30.412925-30.50364368"/><path d="m171.6678 161.826316-65.250566-124.5378545c-3.192517-5.4951417-4.760771-10.6538461-4.760771-15.3639676 0-14.57894734 6.273015-18.6161943 16.970748-20.97125503h-113.30634932c.78412698 0-5.54489796.39251012-4.76077098.39251012 3.13650794 0 28.9006803 7.45769231 41.6147392 31.17651821l77.4605441 140.0139678v65.100607c0 28.821458-16.634694 36.27915-28.9566892 39.026721h81.0451252 28.116553c-2.632426 0-6.04898-1.626114-8.45737-2.635425-3.080499-1.289676-5.99297-3.027936-8.569388-5.158705-6.329025-5.326923-10.473696-13.625708-11.089795-21.868421-.336055-4.710121 0-9.644534 0-14.354656v-16.317206-37.84919"/></g></svg>