<svg width="24px" height="23px" version="1.1" xmlns="http://www.w3.org/2000/svg" xmlns:xlink="http://www.w3.org/1999/xlink">
  <title>LinkedIn</title>
  <path d="M5.453,7.36307086 L5.453,22.6581861 L0.297,22.6581861 L0.297,7.36307086 L5.453,7.36307086 Z M5.781,2.63940507 C5.797,4.10530219 4.672,5.27881013 2.875,5.27881013 L2.844,5.27881013 C1.11,5.27881013 0,4.10530219 0,2.63940507 C0,1.1418983 1.156,0 2.906,0 C4.672,0 5.765,1.1418983 5.781,2.63940507 Z M24,13.8914496 L24,22.6581861 L18.859,22.6581861 L18.859,14.4782036 C18.859,12.4255525 18.109,11.0208991 16.25,11.0208991 C14.828,11.0208991 13.984,11.9622737 13.609,12.8730265 C13.484,13.2128301 13.437,13.6603041 13.437,14.1235829 L13.437,22.6591739 L8.296,22.6591739 C8.359,8.79933395 8.296,7.36405866 8.296,7.36405866 L13.437,7.36405866 L13.437,9.58661158 L13.406,9.58661158 C14.078,8.5375666 15.297,7.009438 18.078,7.009438 C21.469,7.009438 24,9.20136907 24,13.8934252 L24,13.8914496 Z" id="Shape"></path>
</svg>