<svg width="26px" height="20px" version="1.1" xmlns="http://www.w3.org/2000/svg" xmlns:xlink="http://www.w3.org/1999/xlink">
  <title>Mail</title>
  <path d="M25.5000026,6.38246843 L25.5000026,17.5425676 C25.5000026,18.7794801 24.4754855,19.7914994 23.223298,19.7914994 L2.27761533,19.7914994 C1.02542777,19.7914994 0.00091069,18.7794801 0.00091069,17.5425676 L0.00091069,6.38246843 C0.42802048,6.84664795 0.91159254,7.25415439 1.43796665,7.60498775 C3.80027539,9.19363316 6.19081526,10.7813791 8.51032195,12.4545843 C9.70604723,13.3262703 11.1859052,14.3940631 12.7367964,14.3940631 L12.7650275,14.3940631 C14.3159187,14.3940631 15.7957768,13.3253707 16.991502,12.4545843 C19.3110087,10.7957722 21.7015486,9.19363316 24.0775176,7.60498775 C24.5893208,7.25325482 25.0738035,6.84574838 25.5009133,6.38246843 L25.5000026,6.38246843 Z M25.5000026,2.24983137 C25.5000026,3.82408362 24.3188483,5.24360937 23.0666607,6.10090217 C20.8464183,7.61848135 18.6125157,9.13696006 16.4068443,10.6689325 C15.4815915,11.3013321 13.9170401,12.5949177 12.7641169,12.5949177 L12.7358857,12.5949177 C11.5829625,12.5949177 10.0184111,11.3022317 9.09315833,10.6689325 C6.88748688,9.13696006 4.65358429,7.61848135 2.44791283,6.10090217 C1.43796665,5.42622263 0,3.83757722 0,2.55838481 C0,1.18113898 0.75404458,0 2.27670464,0 L23.2223873,0 C24.4600039,0 25.4990919,1.01201931 25.4990919,2.2489318 L25.5000026,2.24983137 Z" id="Shape"></path>
</svg>