<svg width="28px" height="25px" version="1.1" xmlns="http://www.w3.org/2000/svg" xmlns:xlink="http://www.w3.org/1999/xlink">
  <title>Twitter</title>
  <path d="M27.2590769,5.59027779 C26.5181538,6.6540638 25.5930769,7.60189713 24.5333846,8.36569549 C24.5506154,8.59866462 24.5506154,8.83163376 24.5506154,9.06353911 C24.5506154,16.1611194 19.082,24.3384424 9.08707692,24.3384424 C6.00815385,24.3384424 3.14676923,23.4576276 0.74092308,21.9279033 C1.17815385,21.9779013 1.59923077,21.9949219 2.05369231,21.9949219 C4.59415385,21.9949219 6.93323077,21.1470844 8.80169231,19.7013992 C6.412,19.6514013 4.41,18.1057202 3.71969231,15.9781482 C4.05676923,16.0281461 4.39276923,16.0611235 4.746,16.0611235 C5.23384615,16.0611235 5.72169231,15.994105 6.17615385,15.8781523 C3.68630769,15.3792367 1.81784615,13.2186873 1.81784615,10.6092202 L1.81784615,10.5422017 C2.54153846,10.9411214 3.38261538,11.1900473 4.27430769,11.2240885 C2.81076923,10.2602984 1.85123077,8.61462141 1.85123077,6.7529959 C1.85123077,5.75516462 2.12046154,4.84137243 2.59215385,4.04353293 C5.26723077,7.30084569 9.28953846,9.4294815 13.7986154,9.66138685 C13.7146154,9.26246709 13.664,8.84652676 13.664,8.43165022 C13.664,5.47326132 16.0870769,3.06272222 19.0992308,3.06272222 C20.664,3.06272222 22.078,3.71056791 23.0698462,4.75839713 C24.2986154,4.52542799 25.4756923,4.07651029 26.5192308,3.46164198 C26.1153846,4.70839918 25.2570769,5.75516462 24.1295385,6.42003087 C25.2236923,6.3040782 26.2833846,6.00409054 27.2590769,5.589214 L27.2590769,5.59027779 Z" id="Shape"></path>
</svg>