<svg width="20px" height="20px" version="1.1" xmlns="http://www.w3.org/2000/svg" xmlns:xlink="http://www.w3.org/1999/xlink">
  <title>Website</title>
  <path d="M17.6470588,14.7058824 C17.6470588,14.387451 17.5247059,14.0933333 17.3035294,13.8729412 L14.7545098,11.3239216 C14.5341176,11.1035294 14.227451,10.9803922 13.9215686,10.9803922 C13.5662745,10.9803922 13.2847059,11.1152941 13.0392157,11.372549 C13.4439216,11.7772549 13.9215686,12.12 13.9215686,12.745098 C13.9215686,13.3945098 13.3945098,13.9215686 12.745098,13.9215686 C12.12,13.9215686 11.7772549,13.4439216 11.372549,13.0392157 C11.1152941,13.2847059 10.9678431,13.5662745 10.9678431,13.9341176 C10.9678431,14.2407843 11.0901961,14.5466667 11.3113725,14.7670588 L13.8360784,17.3035294 C14.0564706,17.5239216 14.3631373,17.6345098 14.6690196,17.6345098 C14.974902,17.6345098 15.2815686,17.5239216 15.5019608,17.3160784 L17.3035294,15.5270588 C17.5239216,15.3066667 17.6470588,15.012549 17.6470588,14.7058824 Z M9.03215686,6.06588235 C9.03215686,5.75921569 8.90980392,5.45333333 8.68862745,5.23294118 L6.16392157,2.69647059 C5.94352941,2.47607843 5.63686275,2.35294118 5.33098039,2.35294118 C5.02509804,2.35294118 4.71843137,2.47529412 4.49803922,2.68392157 L2.69647059,4.47294118 C2.47607843,4.69333333 2.35294118,4.98745098 2.35294118,5.29411765 C2.35294118,5.61254902 2.47529412,5.90666667 2.69647059,6.12705882 L5.2454902,8.67607843 C5.46588235,8.89647059 5.77254902,9.00705882 6.07843137,9.00705882 C6.43372549,9.00705882 6.71529412,8.88470588 6.96078431,8.62745098 C6.55607843,8.2227451 6.07843137,7.88 6.07843137,7.25490196 C6.07843137,6.6054902 6.6054902,6.07843137 7.25490196,6.07843137 C7.88,6.07843137 8.2227451,6.55607843 8.62745098,6.96078431 C8.88470588,6.71529412 9.03215686,6.43372549 9.03215686,6.06588235 Z M20,14.7058824 C20,15.6376471 19.6203922,16.5443137 18.9584314,17.1937255 L17.1568627,18.9827451 C16.494902,19.6447059 15.6007843,20 14.6690196,20 C13.7254902,20 12.8305882,19.6321569 12.1694118,18.9584314 L9.64470588,16.4219608 C8.9827451,15.76 8.62745098,14.8658824 8.62745098,13.9341176 C8.62745098,12.9662745 9.01960784,12.0470588 9.70588235,11.372549 L8.62745098,10.2941176 C7.95372549,10.9803922 7.04627451,11.372549 6.07843137,11.372549 C5.14666667,11.372549 4.24,11.0047059 3.57882353,10.3427451 L1.02980392,7.79372549 C0.356078431,7.12 0,6.23764706 0,5.29411765 C0,4.36235294 0.379607843,3.45568627 1.04156863,2.80627451 L2.84313725,1.0172549 C3.50509804,0.355294118 4.39921569,0 5.33098039,0 C6.2745098,0 7.16941176,0.367843137 7.83058824,1.04156863 L10.3552941,3.57803922 C11.0172549,4.24 11.372549,5.13411765 11.372549,6.06588235 C11.372549,7.03372549 10.9803922,7.95294118 10.2941176,8.62745098 L11.372549,9.70588235 C12.0462745,9.01960784 12.9537255,8.62745098 13.9215686,8.62745098 C14.8533333,8.62745098 15.76,8.99529412 16.4211765,9.6572549 L18.9701961,12.2062745 C19.6439216,12.88 20,13.7623529 20,14.7058824 Z" id="Shape"></path>
</svg>