<svg width="28px" height="20px" version="1.1" xmlns="http://www.w3.org/2000/svg" xmlns:xlink="http://www.w3.org/1999/xlink">
  <title>YouTube</title>
  <path d="M11.1091514,13.3046957 L18.6711514,9.44634379 L11.1091514,5.54156527 L11.1091514,13.3046957 Z M14.0001514,3.10862447e-15 C19.8911514,3.10862447e-15 23.7971514,0.27757217 23.7971514,0.27757217 C24.3441514,0.33980365 25.5471514,0.33980365 26.6091514,1.45108011 C26.6091514,1.45108011 27.4681514,2.2847844 27.7181514,4.19815551 C28.0151514,6.43651324 27.9991514,8.67388318 27.9991514,8.67388318 L27.9991514,10.7729609 C27.9991514,10.7729609 28.0151514,13.0113187 27.7181514,15.2486886 C27.4681514,17.1472427 26.6091514,17.995764 26.6091514,17.995764 C25.5471514,19.0912356 24.3431514,19.0912356 23.7971514,19.1534671 C23.7971514,19.1534671 19.8911514,19.4468441 14.0001514,19.4468441 C6.71915137,19.3846126 4.48415137,19.1692719 4.48415137,19.1692719 C3.85915137,19.0616016 2.45315137,19.0922234 1.39015137,17.995764 C1.39015137,17.995764 0.531151366,17.1472427 0.281151366,15.2486886 C-0.0158486341,13.0103309 0.000151365933,10.7729609 0.000151365933,10.7729609 L0.000151365933,8.67388318 C0.000151365933,8.67388318 -0.0158486341,6.43552544 0.281151366,4.19815551 C0.531151366,2.2847844 1.39015137,1.45108011 1.39015137,1.45108011 C2.45215137,0.33980365 3.65615137,0.33980365 4.20215137,0.27757217 C4.20215137,0.27757217 8.10815137,0 13.9991514,0 L14.0001514,3.10862447e-15 Z" id="Shape"></path>
</svg>